<?xml version="1.0" encoding="iso-8859-1"?>
<!-- Uploaded to: SVG Repo, www.svgrepo.com, Generator: SVG Repo Mixer Tools -->
<svg fill="currentColor" height="800px" width="800px" version="1.1" id="Layer_1" xmlns="http://www.w3.org/2000/svg" xmlns:xlink="http://www.w3.org/1999/xlink"
	 viewBox="0 0 297 297" xml:space="preserve">
<g>
	<g>
		<g>
			<path fill="currentColor" d="M97.286,219.801c25.647,18.496,59.535,21.854,88.525,8.196c28.987-13.656,47.973-41.922,50.041-73.474
				c-20.233,12.374-43.216,24.707-67.603,36.197C143.855,202.213,119.714,212.076,97.286,219.801z"/>
			<path d="M65.045,172.502c23.864-6.648,52.058-17.42,80.172-30.665c28.114-13.247,54.367-28.126,74.689-42.297
				c-0.767-1.82-1.442-3.324-1.789-3.925c-12.91-22.38-39.015-34.96-66.885-34.96c-13.36,0-27.12,2.888-40.035,8.974
				c-39.856,18.778-61.405,63.188-48.036,98.997C63.403,169.277,64.132,170.755,65.045,172.502z"/>
			<path d="M296.881,78.904c-1.09-2.313-16.371-8.036-66.301,6.137c1.662,2.881,5.939,12.403,6.74,14.486
				c1.312,3.413,0.17,7.28-2.785,9.431c-21.727,15.821-51.002,32.689-82.43,47.498c-31.431,14.808-63.077,26.642-89.111,33.324
				c-0.669,0.172-1.343,0.254-2.01,0.254c-2.864,0-5.581-1.529-7.038-4.113c-1.096-1.943-5.732-11.298-6.895-14.412
				c-42.719,29.48-48.016,44.9-46.926,47.214c0.84,1.789,11.466,6.78,48.041-1.459c31.926-7.194,72.126-21.813,113.194-41.163
				c41.069-19.349,77.937-41.042,103.81-61.08C294.811,92.064,297.724,80.692,296.881,78.904z"/>
		</g>
	</g>
</g>
</svg>
